<?xml version="1.0" encoding="utf-8"?>
<!-- Generator: Adobe Illustrator 15.0.0, SVG Export Plug-In . SVG Version: 6.00 Build 0)  -->
<!DOCTYPE svg PUBLIC "-//W3C//DTD SVG 1.1//EN" "http://www.w3.org/Graphics/SVG/1.1/DTD/svg11.dtd">
<svg version="1.1" id="_x31_90x210_ramka" xmlns="http://www.w3.org/2000/svg" xmlns:xlink="http://www.w3.org/1999/xlink" x="0px"
	 y="0px" width="538.583px" height="538.584px" viewBox="0 0 538.583 538.584" enable-background="new 0 0 538.583 538.584"
	 xml:space="preserve">
<g>
	<polygon fill="#FFFFFF" stroke="#000000" stroke-linecap="round" stroke-linejoin="round" points="307.977,115.207 
		300.965,108.052 386.633,20.671 393.645,27.825 	"/>
	<polygon fill="#FFFFFF" stroke="#000000" stroke-linecap="round" stroke-linejoin="round" points="153.142,116.208 
		146.131,109.055 229.448,24.07 243.064,24.487 	"/>
	<polygon fill="#FFFFFF" stroke="#000000" stroke-linecap="round" stroke-linejoin="round" points="148.428,82.16 148.375,67.909 
		192.957,22.435 204.971,24.487 	"/>
	<polygon fill="#FFFFFF" stroke="#000000" stroke-linecap="round" stroke-linejoin="round" points="320.37,142.577 313.358,135.424 
		388.227,59.058 395.239,66.211 	"/>
	<polygon fill="#FFFFFF" stroke="#000000" stroke-linecap="round" stroke-linejoin="round" points="178.995,127.891 
		171.983,120.737 262.951,27.743 280.374,24.487 	"/>
	<polygon fill="#FFFFFF" stroke="#000000" stroke-linecap="round" stroke-linejoin="round" points="217.61,127.891 210.599,120.737 
		306.506,22.912 318.989,24.487 	"/>
	<polygon fill="#FFFFFF" stroke="#000000" stroke-linecap="round" stroke-linejoin="round" points="256.535,127.891 
		249.523,120.737 345.452,22.892 357.913,24.487 	"/>
	<polygon fill="#FFFFFF" stroke="#000000" stroke-linecap="round" stroke-linejoin="round" points="303.659,20.007 296.646,27.16 
		382.315,114.541 389.327,107.388 	"/>
	<polygon fill="#FFFFFF" stroke="#000000" stroke-linecap="round" stroke-linejoin="round" points="150.524,21.008 143.513,28.161 
		231.471,117.879 238.483,110.726 	"/>
	<polygon fill="#FFFFFF" stroke="#000000" stroke-linecap="round" stroke-linejoin="round" points="151.046,60.396 144.034,67.549 
		193.377,117.879 200.389,110.726 	"/>
	<polygon fill="#FFFFFF" stroke="#000000" stroke-linecap="round" stroke-linejoin="round" points="344.155,21.569 333.321,24.823 
		383.645,76.154 390.657,69.001 	"/>
	<polygon fill="#FFFFFF" stroke="#000000" stroke-linecap="round" stroke-linejoin="round" points="187.176,20.34 180.165,27.493 
		268.778,117.879 275.792,110.726 	"/>
	<polygon fill="#FFFFFF" stroke="#000000" stroke-linecap="round" stroke-linejoin="round" points="224.483,19.005 217.471,26.159 
		307.395,117.879 314.407,110.726 	"/>
	<polygon fill="#FFFFFF" stroke="#000000" stroke-linecap="round" stroke-linejoin="round" points="263.035,18.671 256.023,25.825 
		346.274,117.879 353.286,110.726 	"/>
</g>
<rect x="147.236" y="108.086" fill="#FFFFFF" stroke="#000000" stroke-linecap="round" stroke-linejoin="round" width="247.243" height="416.325"/>
<rect x="263.251" y="114.481" fill="#FFFFFF" stroke="#000000" stroke-linecap="round" stroke-linejoin="round" width="12.537" height="409.93"/>
<rect x="141.481" y="511.625" fill="#FFFFFF" stroke="#000000" stroke-linecap="round" stroke-linejoin="round" width="255.098" height="12.785"/>
<rect x="144.1" y="108.086" fill="#FFFFFF" stroke="#000000" stroke-linecap="round" stroke-linejoin="round" width="248.117" height="12.787"/>
<g>
	
		<rect x="144.1" y="464.048" fill="#FFFFFF" stroke="#000000" stroke-linecap="round" stroke-linejoin="round" width="248.117" height="28.766"/>
	
		<rect x="144.1" y="415.024" fill="#FFFFFF" stroke="#000000" stroke-linecap="round" stroke-linejoin="round" width="248.117" height="28.766"/>
	
		<rect x="144.1" y="365.999" fill="#FFFFFF" stroke="#000000" stroke-linecap="round" stroke-linejoin="round" width="248.117" height="28.765"/>
	
		<rect x="144.1" y="316.975" fill="#FFFFFF" stroke="#000000" stroke-linecap="round" stroke-linejoin="round" width="248.117" height="28.762"/>
	<g>
		
			<rect x="144.1" y="267.946" fill="#FFFFFF" stroke="#000000" stroke-linecap="round" stroke-linejoin="round" width="248.117" height="28.769"/>
		
			<rect x="144.1" y="218.922" fill="#FFFFFF" stroke="#000000" stroke-linecap="round" stroke-linejoin="round" width="248.117" height="28.767"/>
		
			<rect x="144.1" y="169.897" fill="#FFFFFF" stroke="#000000" stroke-linecap="round" stroke-linejoin="round" width="248.117" height="28.766"/>
		
			<rect x="144.1" y="120.873" fill="#FFFFFF" stroke="#000000" stroke-linecap="round" stroke-linejoin="round" width="248.117" height="28.77"/>
	</g>
</g>
<rect x="141.928" y="17.273" fill="#FFFFFF" stroke="#000000" stroke-linecap="round" stroke-linejoin="round" width="254.65" height="12.786"/>
<rect x="141.481" y="17.252" fill="#FFFFFF" stroke="#000000" stroke-linecap="round" stroke-linejoin="round" width="12.534" height="507.159"/>
<rect x="384.032" y="17.252" fill="#FFFFFF" stroke="#000000" stroke-linecap="round" stroke-linejoin="round" width="12.533" height="507.159"/>
</svg>
