<?xml version="1.0" encoding="utf-8"?>
<!-- Generator: Adobe Illustrator 15.0.0, SVG Export Plug-In . SVG Version: 6.00 Build 0)  -->
<!DOCTYPE svg PUBLIC "-//W3C//DTD SVG 1.1//EN" "http://www.w3.org/Graphics/SVG/1.1/DTD/svg11.dtd">
<svg version="1.1" id="_x31_90x210_ramka" xmlns="http://www.w3.org/2000/svg" xmlns:xlink="http://www.w3.org/1999/xlink" x="0px"
	 y="0px" width="538.583px" height="538.584px" viewBox="0 0 538.583 538.584" enable-background="new 0 0 538.583 538.584"
	 xml:space="preserve">
<rect x="466.474" y="8.596" transform="matrix(0.7071 0.7071 -0.7071 0.7071 187.8761 -312.8088)" fill="#FFFFFF" stroke="#000000" stroke-linecap="round" stroke-linejoin="round" width="10.115" height="123.573"/>
<rect x="491.958" y="61.269" transform="matrix(0.707 0.7072 -0.7072 0.707 210.8286 -324.4754)" fill="#FFFFFF" stroke="#000000" stroke-linecap="round" stroke-linejoin="round" width="10.114" height="61.875"/>
<rect x="420.497" y="8.596" transform="matrix(0.7071 0.7071 -0.7071 0.7071 174.4103 -280.2975)" fill="#FFFFFF" stroke="#000000" stroke-linecap="round" stroke-linejoin="round" width="10.115" height="123.575"/>
<rect x="375.554" y="8.586" transform="matrix(0.7071 0.7072 -0.7072 0.7071 161.2649 -248.535)" fill="#FFFFFF" stroke="#000000" stroke-linecap="round" stroke-linejoin="round" width="10.116" height="123.584"/>
<rect x="329.595" y="8.613" transform="matrix(0.707 0.7073 -0.7073 0.707 147.856 -216.0533)" fill="#FFFFFF" stroke="#000000" stroke-linecap="round" stroke-linejoin="round" width="10.114" height="123.572"/>
<rect x="283.361" y="8.596" transform="matrix(0.7071 0.7071 -0.7071 0.7071 134.2603 -183.3309)" fill="#FFFFFF" stroke="#000000" stroke-linecap="round" stroke-linejoin="round" width="10.116" height="123.594"/>
<rect x="238.454" y="8.596" transform="matrix(0.7071 0.7072 -0.7072 0.7071 121.1132 -151.5802)" fill="#FFFFFF" stroke="#000000" stroke-linecap="round" stroke-linejoin="round" width="10.117" height="123.592"/>
<rect x="192.478" y="8.597" transform="matrix(0.7071 0.7072 -0.7072 0.7071 107.6452 -119.0679)" fill="#FFFFFF" stroke="#000000" stroke-linecap="round" stroke-linejoin="round" width="10.117" height="123.591"/>
<rect x="149.501" y="8.597" transform="matrix(0.707 0.7072 -0.7072 0.707 95.061 -88.6786)" fill="#FFFFFF" stroke="#000000" stroke-linecap="round" stroke-linejoin="round" width="10.117" height="123.591"/>
<rect x="104.595" y="8.597" transform="matrix(0.707 0.7072 -0.7072 0.707 81.9051 -56.9222)" fill="#FFFFFF" stroke="#000000" stroke-linecap="round" stroke-linejoin="round" width="10.117" height="123.591"/>
<rect x="58.619" y="8.606" transform="matrix(0.707 0.7072 -0.7072 0.707 68.4385 -24.4077)" fill="#FFFFFF" stroke="#000000" stroke-linecap="round" stroke-linejoin="round" width="10.115" height="123.574"/>
<rect x="36.938" y="18.284" transform="matrix(0.707 0.7072 -0.7072 0.707 45.5626 -15.9205)" fill="#FFFFFF" stroke="#000000" stroke-linecap="round" stroke-linejoin="round" width="10.115" height="57.487"/>
<rect x="64.208" y="8.596" transform="matrix(-0.707 0.7072 -0.7072 -0.707 168.0193 71.1778)" fill="#FFFFFF" stroke="#000000" stroke-linecap="round" stroke-linejoin="round" width="10.117" height="123.591"/>
<rect x="37.758" y="58.967" transform="matrix(-0.707 0.7072 -0.7072 -0.707 137.6227 125.4978)" fill="#FFFFFF" stroke="#000000" stroke-linecap="round" stroke-linejoin="round" width="10.117" height="64.577"/>
<rect x="110.184" y="8.61" transform="matrix(-0.707 0.7072 -0.7072 -0.707 246.5035 38.6696)" fill="#FFFFFF" stroke="#000000" stroke-linecap="round" stroke-linejoin="round" width="10.115" height="123.574"/>
<rect x="155.087" y="8.596" transform="matrix(-0.707 0.7072 -0.7072 -0.707 323.1543 6.9104)" fill="#FFFFFF" stroke="#000000" stroke-linecap="round" stroke-linejoin="round" width="10.117" height="123.592"/>
<rect x="201.062" y="8.598" transform="matrix(-0.7071 0.7071 -0.7071 -0.7071 401.6447 -25.581)" fill="#FFFFFF" stroke="#000000" stroke-linecap="round" stroke-linejoin="round" width="10.116" height="123.589"/>
<rect x="247.311" y="8.613" transform="matrix(-0.707 0.7072 -0.7072 -0.707 480.5835 -58.3024)" fill="#FFFFFF" stroke="#000000" stroke-linecap="round" stroke-linejoin="round" width="10.115" height="123.575"/>
<rect x="292.208" y="8.597" transform="matrix(-0.7071 0.7071 -0.7071 -0.7071 557.2324 -90.0451)" fill="#FFFFFF" stroke="#000000" stroke-linecap="round" stroke-linejoin="round" width="10.115" height="123.575"/>
<rect x="338.182" y="8.596" transform="matrix(-0.7072 0.7071 -0.7071 -0.7072 635.7285 -122.5378)" fill="#FFFFFF" stroke="#000000" stroke-linecap="round" stroke-linejoin="round" width="10.116" height="123.573"/>
<rect x="381.158" y="8.595" transform="matrix(-0.7072 0.7071 -0.7071 -0.7072 709.093 -152.9254)" fill="#FFFFFF" stroke="#000000" stroke-linecap="round" stroke-linejoin="round" width="10.114" height="123.572"/>
<rect x="426.063" y="8.594" transform="matrix(-0.7071 0.7071 -0.7071 -0.7071 785.7358 -184.7002)" fill="#FFFFFF" stroke="#000000" stroke-linecap="round" stroke-linejoin="round" width="10.115" height="123.575"/>
<rect x="470.637" y="9.159" transform="matrix(-0.707 0.7073 -0.7073 -0.707 860.7432 -218.772)" fill="#FFFFFF" stroke="#000000" stroke-linecap="round" stroke-linejoin="round" width="10.114" height="119.545"/>
<rect x="493.731" y="18.28" transform="matrix(-0.7069 0.7073 -0.7073 -0.7069 884.6517 -272.521)" fill="#FFFFFF" stroke="#000000" stroke-linecap="round" stroke-linejoin="round" width="10.115" height="57.495"/>
<path fill="#FFFFFF" stroke="#000000" stroke-linecap="round" stroke-linejoin="round" d="M433.977,101.562"/>
<path fill="#FFFFFF" stroke="#000000" stroke-linecap="round" stroke-linejoin="round" d="M487.379,60.972"/>
<path fill="#FFFFFF" stroke="#000000" stroke-linecap="round" stroke-linejoin="round" d="M268.814,102.196"/>
<rect x="14.724" y="108.084" fill="#FFFFFF" stroke="#000000" stroke-linecap="round" stroke-linejoin="round" width="506.241" height="416.327"/>
<rect x="181.786" y="113.68" fill="#FFFFFF" stroke="#000000" stroke-linecap="round" stroke-linejoin="round" width="10.441" height="410.729"/>
<rect x="346.061" y="112.752" fill="#FFFFFF" stroke="#000000" stroke-linecap="round" stroke-linejoin="round" width="10.422" height="411.659"/>
<rect x="14.724" y="511.624" fill="#FFFFFF" stroke="#000000" stroke-linecap="round" stroke-linejoin="round" width="506.241" height="12.787"/>
<rect x="14.724" y="108.084" fill="#FFFFFF" stroke="#000000" stroke-linecap="round" stroke-linejoin="round" width="506.241" height="12.789"/>
<g>
	
		<rect x="14.724" y="464.053" fill="#FFFFFF" stroke="#000000" stroke-linecap="round" stroke-linejoin="round" width="506.241" height="28.764"/>
	
		<rect x="14.724" y="415.026" fill="#FFFFFF" stroke="#000000" stroke-linecap="round" stroke-linejoin="round" width="506.241" height="28.767"/>
	
		<rect x="14.724" y="366.002" fill="#FFFFFF" stroke="#000000" stroke-linecap="round" stroke-linejoin="round" width="506.241" height="28.765"/>
	
		<rect x="14.724" y="316.977" fill="#FFFFFF" stroke="#000000" stroke-linecap="round" stroke-linejoin="round" width="506.241" height="28.768"/>
	<g>
		
			<rect x="14.724" y="267.947" fill="#FFFFFF" stroke="#000000" stroke-linecap="round" stroke-linejoin="round" width="506.241" height="28.768"/>
		
			<rect x="14.724" y="218.922" fill="#FFFFFF" stroke="#000000" stroke-linecap="round" stroke-linejoin="round" width="506.241" height="28.769"/>
		
			<rect x="14.724" y="169.898" fill="#FFFFFF" stroke="#000000" stroke-linecap="round" stroke-linejoin="round" width="506.241" height="28.768"/>
		
			<rect x="14.724" y="120.873" fill="#FFFFFF" stroke="#000000" stroke-linecap="round" stroke-linejoin="round" width="506.241" height="28.769"/>
	</g>
</g>
<rect x="14.573" y="17.271" fill="#FFFFFF" stroke="#000000" stroke-linecap="round" stroke-linejoin="round" width="509.431" height="12.788"/>
<rect x="14.573" y="17.25" fill="#FFFFFF" stroke="#000000" stroke-linecap="round" stroke-linejoin="round" width="12.783" height="507.161"/>
<rect x="511.204" y="17.25" fill="#FFFFFF" stroke="#000000" stroke-linecap="round" stroke-linejoin="round" width="12.785" height="507.161"/>
</svg>
