<?xml version="1.0" encoding="utf-8"?>
<!-- Generator: Adobe Illustrator 15.0.0, SVG Export Plug-In . SVG Version: 6.00 Build 0)  -->
<!DOCTYPE svg PUBLIC "-//W3C//DTD SVG 1.1//EN" "http://www.w3.org/Graphics/SVG/1.1/DTD/svg11.dtd">
<svg version="1.1" id="_x31_90x210_ramka" xmlns="http://www.w3.org/2000/svg" xmlns:xlink="http://www.w3.org/1999/xlink" x="0px"
	 y="0px" width="538.583px" height="538.584px" viewBox="0 0 538.583 538.584" enable-background="new 0 0 538.583 538.584"
	 xml:space="preserve">
<polygon fill="#FFFFFF" stroke="#000000" stroke-linecap="round" stroke-linejoin="round" points="230.874,243.072 240.792,243.069 
	240.792,119.495 230.874,119.498 "/>
<rect x="295.02" y="184.92" fill="#FFFFFF" stroke="#000000" stroke-linecap="round" stroke-linejoin="round" width="9.918" height="123.575"/>
<rect x="326.217" y="216.739" fill="#FFFFFF" stroke="#000000" stroke-linecap="round" stroke-linejoin="round" width="9.918" height="123.576"/>
<rect x="357.85" y="249.01" fill="#FFFFFF" stroke="#000000" stroke-linecap="round" stroke-linejoin="round" width="9.92" height="123.575"/>
<polygon fill="#FFFFFF" stroke="#000000" stroke-linecap="round" stroke-linejoin="round" points="263.161,276.006 273.084,276.004 
	273.084,152.429 263.161,152.432 "/>
<polygon fill="#FFFFFF" stroke="#000000" stroke-linecap="round" stroke-linejoin="round" points="200.329,211.917 210.248,211.914 
	210.248,88.34 200.329,88.344 "/>
<polygon fill="#FFFFFF" stroke="#000000" stroke-linecap="round" stroke-linejoin="round" points="168.478,179.43 178.396,179.427 
	178.396,55.852 168.478,55.855 "/>
<rect x="164.588" y="51.349" transform="matrix(-0.0013 1 -1 -0.0013 244.7184 -94.694)" fill="#FFFFFF" stroke="#000000" stroke-linecap="round" stroke-linejoin="round" width="10.113" height="47.008"/>
<polygon fill="#FFFFFF" stroke="#000000" stroke-linecap="round" stroke-linejoin="round" points="391.127,524.28 141.623,524.28 
	141.623,154.1 391.127,403.262 "/>
<polygon fill="#FFFFFF" stroke="#000000" stroke-linecap="round" stroke-linejoin="round" points="275.93,524.28 263.393,524.28 
	263.393,279.237 275.93,286.049 "/>
<rect x="147.854" y="102.344" fill="#FFFFFF" stroke="#000000" stroke-linecap="round" stroke-linejoin="round" width="77.958" height="10.115"/>
<rect x="148.29" y="134.833" fill="#FFFFFF" stroke="#000000" stroke-linecap="round" stroke-linejoin="round" width="107.628" height="10.116"/>
<polygon fill="#FFFFFF" stroke="#000000" stroke-linecap="round" stroke-linejoin="round" points="160.071,167.768 160.071,177.883 
	290.831,177.883 290.825,167.768 "/>
<polygon fill="#FFFFFF" stroke="#000000" stroke-linecap="round" stroke-linejoin="round" points="190.615,197.141 190.615,207.256 
	318.319,207.256 318.313,197.141 "/>
<rect x="224.212" y="229.632" fill="#FFFFFF" stroke="#000000" stroke-linecap="round" stroke-linejoin="round" width="125.958" height="10.115"/>
<polygon fill="#FFFFFF" stroke="#000000" stroke-linecap="round" stroke-linejoin="round" points="256.065,263.01 256.065,273.125 
	387.26,273.125 385.838,263.01 "/>
<rect x="289.668" y="295.499" fill="#FFFFFF" stroke="#000000" stroke-linecap="round" stroke-linejoin="round" width="97.592" height="10.117"/>
<rect x="320.211" y="327.098" fill="#FFFFFF" stroke="#000000" stroke-linecap="round" stroke-linejoin="round" width="67.049" height="10.114"/>
<polygon fill="#FFFFFF" stroke="#000000" stroke-linecap="round" stroke-linejoin="round" points="266.102,360.477 266.102,370.592 
	387.26,370.592 387.254,360.477 "/>
<rect x="141.623" y="511.497" fill="#FFFFFF" stroke="#000000" stroke-linecap="round" stroke-linejoin="round" width="249.504" height="12.783"/>
<rect x="141.623" y="484.794" fill="#FFFFFF" stroke="#000000" stroke-linecap="round" stroke-linejoin="round" width="249.504" height="26.702"/>
<rect x="141.623" y="439.288" fill="#FFFFFF" stroke="#000000" stroke-linecap="round" stroke-linejoin="round" width="249.504" height="26.703"/>
<rect x="141.623" y="393.782" fill="#FFFFFF" stroke="#000000" stroke-linecap="round" stroke-linejoin="round" width="249.504" height="26.703"/>
<polygon fill="#FFFFFF" stroke="#000000" stroke-linecap="round" stroke-linejoin="round" points="344.327,348.276 141.623,348.276 
	141.623,374.979 359.616,374.979 "/>
<polygon fill="#FFFFFF" stroke="#000000" stroke-linecap="round" stroke-linejoin="round" points="294.502,302.77 141.623,302.77 
	141.623,329.471 315.62,329.471 "/>
<polygon fill="#FFFFFF" stroke="#000000" stroke-linecap="round" stroke-linejoin="round" points="250.227,257.263 141.623,257.263 
	141.623,283.968 275.874,283.968 "/>
<polygon fill="#FFFFFF" stroke="#000000" stroke-linecap="round" stroke-linejoin="round" points="203.81,211.758 141.623,211.758 
	141.623,238.456 225.682,238.456 "/>
<polygon fill="#FFFFFF" stroke="#000000" stroke-linecap="round" stroke-linejoin="round" points="161.907,166.252 141.623,166.252 
	141.623,192.951 176.676,192.951 "/>
<polygon fill="#FFFFFF" stroke="#000000" stroke-linecap="round" stroke-linejoin="round" points="385.321,277.756 142.978,35.642 
	151.748,26.507 394.092,268.622 "/>
<polygon fill="#FFFFFF" stroke="#000000" stroke-linecap="round" stroke-linejoin="round" points="386.383,405.991 143.036,164.223 
	151.783,155.065 395.131,396.833 "/>
<polygon fill="#FFFFFF" stroke="#000000" stroke-linecap="round" stroke-linejoin="round" points="390.213,524.399 142.397,524.399 
	142.397,118.592 390.213,367.829 "/>
<polygon fill="#FFFFFF" stroke="#000000" stroke-linecap="round" stroke-linejoin="round" points="275.021,524.399 262.482,524.399 
	262.482,239.679 275.021,252.523 "/>
<rect x="141.326" y="511.614" fill="#FFFFFF" stroke="#000000" stroke-linecap="round" stroke-linejoin="round" width="248.981" height="12.785"/>
<rect x="143.266" y="462.024" fill="#FFFFFF" stroke="#000000" stroke-linecap="round" stroke-linejoin="round" width="246.947" height="29.104"/>
<rect x="143.266" y="412.426" fill="#FFFFFF" stroke="#000000" stroke-linecap="round" stroke-linejoin="round" width="246.947" height="29.104"/>
<polygon fill="#FFFFFF" stroke="#000000" stroke-linecap="round" stroke-linejoin="round" points="386.846,362.831 143.266,362.831 
	143.266,391.928 390.213,391.928 "/>
<polygon fill="#FFFFFF" stroke="#000000" stroke-linecap="round" stroke-linejoin="round" points="323.993,313.231 143.266,313.231 
	143.266,342.331 357.85,342.331 "/>
<polygon fill="#FFFFFF" stroke="#000000" stroke-linecap="round" stroke-linejoin="round" points="280.059,263.628 143.266,263.628 
	143.266,292.731 305.436,292.731 "/>
<polygon fill="#FFFFFF" stroke="#000000" stroke-linecap="round" stroke-linejoin="round" points="233.549,214.03 143.266,214.03 
	143.266,243.133 254.452,243.133 "/>
<polygon fill="#FFFFFF" stroke="#000000" stroke-linecap="round" stroke-linejoin="round" points="184.795,166.372 143.125,166.372 
	143.266,195.472 203.685,195.472 "/>
<polygon fill="#FFFFFF" stroke="#000000" stroke-linecap="round" stroke-linejoin="round" points="385.428,378.18 142.083,136.411 
	150.826,127.253 394.178,369.02 "/>
<polygon fill="#FFFFFF" stroke="#000000" stroke-linecap="round" stroke-linejoin="round" points="153.204,524.411 140.666,524.411 
	140.666,15.543 153.204,27.98 "/>
<polygon fill="#FFFFFF" stroke="#000000" stroke-linecap="round" stroke-linejoin="round" points="396.706,524.411 384.174,524.411 
	384.174,258.632 396.706,270.813 "/>
</svg>
