<?xml version="1.0" encoding="utf-8"?>
<!-- Generator: Adobe Illustrator 15.0.0, SVG Export Plug-In . SVG Version: 6.00 Build 0)  -->
<!DOCTYPE svg PUBLIC "-//W3C//DTD SVG 1.1//EN" "http://www.w3.org/Graphics/SVG/1.1/DTD/svg11.dtd">
<svg version="1.1" id="_x31_90x210_ramka" xmlns="http://www.w3.org/2000/svg" xmlns:xlink="http://www.w3.org/1999/xlink" x="0px"
	 y="0px" width="538.583px" height="538.584px" viewBox="0 0 538.583 538.584" enable-background="new 0 0 538.583 538.584"
	 xml:space="preserve">
<path fill="#FFFFFF" stroke="#000000" stroke-linecap="round" stroke-linejoin="round" d="M434.84,356.372"/>
<path fill="#FFFFFF" stroke="#000000" stroke-linecap="round" stroke-linejoin="round" d="M488.241,314.284"/>
<rect x="14.53" y="365.899" fill="#FFFFFF" stroke="#000000" stroke-linecap="round" stroke-linejoin="round" width="506.633" height="158.449"/>
<rect x="180.596" y="367.721" fill="#FFFFFF" stroke="#000000" stroke-linecap="round" stroke-linejoin="round" width="12.783" height="156.688"/>
<rect x="344.862" y="367.721" fill="#FFFFFF" stroke="#000000" stroke-linecap="round" stroke-linejoin="round" width="12.783" height="156.688"/>
<g>
	
		<rect x="62.719" y="262.391" transform="matrix(-0.707 0.7072 -0.7072 -0.707 344.959 505.4328)" fill="#FFFFFF" stroke="#000000" stroke-linecap="round" stroke-linejoin="round" width="10.113" height="123.572"/>
	<polygon fill="#FFFFFF" stroke="#000000" stroke-linecap="round" stroke-linejoin="round" points="60.575,371.444 67.731,364.292 
		22.074,318.635 20.033,330.901 	"/>
	
		<rect x="108.688" y="262.401" transform="matrix(-0.707 0.7072 -0.7072 -0.707 423.4249 472.9608)" fill="#FFFFFF" stroke="#000000" stroke-linecap="round" stroke-linejoin="round" width="10.114" height="123.573"/>
	
		<rect x="153.599" y="262.383" transform="matrix(-0.7071 0.7072 -0.7072 -0.7071 500.0784 441.1957)" fill="#FFFFFF" stroke="#000000" stroke-linecap="round" stroke-linejoin="round" width="10.114" height="123.59"/>
	
		<rect x="199.573" y="262.405" transform="matrix(-0.7068 0.7074 -0.7074 -0.7068 578.5946 408.5807)" fill="#FFFFFF" stroke="#000000" stroke-linecap="round" stroke-linejoin="round" width="10.111" height="123.571"/>
	
		<rect x="245.814" y="262.39" transform="matrix(-0.7071 0.7071 -0.7071 -0.7071 657.4916 376.0111)" fill="#FFFFFF" stroke="#000000" stroke-linecap="round" stroke-linejoin="round" width="10.115" height="123.573"/>
	
		<rect x="290.719" y="262.389" transform="matrix(-0.7072 0.7071 -0.7071 -0.7072 734.1483 344.2882)" fill="#FFFFFF" stroke="#000000" stroke-linecap="round" stroke-linejoin="round" width="10.114" height="123.575"/>
	
		<rect x="336.696" y="262.391" transform="matrix(-0.707 0.7072 -0.7072 -0.707 812.6343 311.6858)" fill="#FFFFFF" stroke="#000000" stroke-linecap="round" stroke-linejoin="round" width="10.114" height="123.574"/>
	
		<rect x="379.672" y="262.389" transform="matrix(-0.707 0.7072 -0.7072 -0.707 885.9944 281.2893)" fill="#FFFFFF" stroke="#000000" stroke-linecap="round" stroke-linejoin="round" width="10.114" height="123.574"/>
	
		<rect x="424.539" y="262.389" transform="matrix(-0.707 0.7072 -0.7072 -0.707 962.5879 249.5659)" fill="#FFFFFF" stroke="#000000" stroke-linecap="round" stroke-linejoin="round" width="10.116" height="123.581"/>
	
		<rect x="470.514" y="262.396" transform="matrix(-0.707 0.7072 -0.7072 -0.707 1041.0695 217.0632)" fill="#FFFFFF" stroke="#000000" stroke-linecap="round" stroke-linejoin="round" width="10.114" height="123.58"/>
	<polygon fill="#FFFFFF" stroke="#000000" stroke-linecap="round" stroke-linejoin="round" points="514.045,324.711 
		517.991,314.354 480.547,276.911 473.397,284.062 	"/>
</g>
<g>
	
		<rect x="464.966" y="262.391" transform="matrix(0.707 0.7072 -0.7072 0.707 366.9713 -237.4211)" fill="#FFFFFF" stroke="#000000" stroke-linecap="round" stroke-linejoin="round" width="10.114" height="123.572"/>
	<polygon fill="#FFFFFF" stroke="#000000" stroke-linecap="round" stroke-linejoin="round" points="477.225,371.444 
		470.069,364.292 515.727,318.635 518.315,330.352 	"/>
	
		<rect x="418.988" y="262.35" transform="matrix(0.7071 0.7072 -0.7072 0.7071 353.4377 -204.9118)" fill="#FFFFFF" stroke="#000000" stroke-linecap="round" stroke-linejoin="round" width="10.116" height="123.579"/>
	
		<rect x="374.086" y="262.392" transform="matrix(0.7071 0.7071 -0.7071 0.7071 340.2766 -173.1452)" fill="#FFFFFF" stroke="#000000" stroke-linecap="round" stroke-linejoin="round" width="10.115" height="123.571"/>
	
		<rect x="328.113" y="262.354" transform="matrix(0.707 0.7073 -0.7073 0.707 326.8838 -140.6484)" fill="#FFFFFF" stroke="#000000" stroke-linecap="round" stroke-linejoin="round" width="10.116" height="123.583"/>
	
		<rect x="281.871" y="262.381" transform="matrix(0.7071 0.7072 -0.7072 0.7071 313.2961 -107.9377)" fill="#FFFFFF" stroke="#000000" stroke-linecap="round" stroke-linejoin="round" width="10.114" height="123.592"/>
	
		<rect x="236.982" y="262.359" transform="matrix(0.7071 0.7071 -0.7071 0.7071 300.1139 -76.2037)" fill="#FFFFFF" stroke="#000000" stroke-linecap="round" stroke-linejoin="round" width="10.113" height="123.582"/>
	
		<rect x="190.976" y="262.388" transform="matrix(0.707 0.7072 -0.7072 0.707 286.6801 -43.6587)" fill="#FFFFFF" stroke="#000000" stroke-linecap="round" stroke-linejoin="round" width="10.114" height="123.572"/>
	
		<rect x="148.036" y="262.399" transform="matrix(0.707 0.7072 -0.7072 0.707 274.1075 -13.2887)" fill="#FFFFFF" stroke="#000000" stroke-linecap="round" stroke-linejoin="round" width="10.113" height="123.571"/>
	
		<rect x="103.108" y="262.391" transform="matrix(0.707 0.7072 -0.7072 0.707 260.9399 18.4815)" fill="#FFFFFF" stroke="#000000" stroke-linecap="round" stroke-linejoin="round" width="10.113" height="123.572"/>
	<polygon fill="#FFFFFF" stroke="#000000" stroke-linecap="round" stroke-linejoin="round" points="22.074,371.444 20.447,358.766 
		102.305,276.911 109.456,284.062 	"/>
	
		<rect x="35.447" y="272.068" transform="matrix(0.7072 0.7071 -0.7071 0.7072 224.5527 59.4531)" fill="#FFFFFF" stroke="#000000" stroke-linecap="round" stroke-linejoin="round" width="10.113" height="57.487"/>
</g>
<rect x="14.53" y="511.563" fill="#FFFFFF" stroke="#000000" stroke-linecap="round" stroke-linejoin="round" width="509.457" height="12.785"/>
<rect x="14.53" y="466.104" fill="#FFFFFF" stroke="#000000" stroke-linecap="round" stroke-linejoin="round" width="506.633" height="26.703"/>
<rect x="14.53" y="420.6" fill="#FFFFFF" stroke="#000000" stroke-linecap="round" stroke-linejoin="round" width="506.633" height="26.703"/>
<rect x="14.53" y="375.094" fill="#FFFFFF" stroke="#000000" stroke-linecap="round" stroke-linejoin="round" width="506.633" height="26.702"/>
<rect x="14.53" y="362.311" fill="#FFFFFF" stroke="#000000" stroke-linecap="round" stroke-linejoin="round" width="506.633" height="12.783"/>
<rect x="14.53" y="271.499" fill="#FFFFFF" stroke="#000000" stroke-linecap="round" stroke-linejoin="round" width="509.457" height="12.783"/>
<rect x="14.53" y="271.547" fill="#FFFFFF" stroke="#000000" stroke-linecap="round" stroke-linejoin="round" width="12.783" height="252.824"/>
<rect x="511.186" y="271.588" fill="#FFFFFF" stroke="#000000" stroke-linecap="round" stroke-linejoin="round" width="12.783" height="252.822"/>
</svg>
