<?xml version="1.0" encoding="utf-8"?>
<!-- Generator: Adobe Illustrator 15.0.0, SVG Export Plug-In . SVG Version: 6.00 Build 0)  -->
<!DOCTYPE svg PUBLIC "-//W3C//DTD SVG 1.1//EN" "http://www.w3.org/Graphics/SVG/1.1/DTD/svg11.dtd">
<svg version="1.1" id="_x31_90x210_ramka" xmlns="http://www.w3.org/2000/svg" xmlns:xlink="http://www.w3.org/1999/xlink" x="0px"
	 y="0px" width="538.583px" height="538.584px" viewBox="0 0 538.583 538.584" enable-background="new 0 0 538.583 538.584"
	 xml:space="preserve">
<polygon fill="#FFFFFF" stroke="#000000" stroke-linecap="round" stroke-linejoin="round" points="341.229,364.438 347.385,356.504 
	156.242,202.25 150.091,210.177 "/>
<polygon fill="#FFFFFF" stroke="#000000" stroke-linecap="round" stroke-linejoin="round" points="386.006,359.114 392.157,351.182 
	152.602,157.859 146.461,165.792 "/>
<polygon fill="#FFFFFF" stroke="#000000" stroke-linecap="round" stroke-linejoin="round" points="388.055,321.788 393.985,314.143 
	242.69,192.038 236.764,199.688 "/>
<polygon fill="#FFFFFF" stroke="#000000" stroke-linecap="round" stroke-linejoin="round" points="361.997,363.524 354.7,359.071 
	387.135,303.84 394.426,308.293 "/>
<polygon fill="#FFFFFF" stroke="#000000" stroke-linecap="round" stroke-linejoin="round" points="333.161,352.227 324.657,347.03 
	371.067,267.992 379.571,273.188 "/>
<polygon fill="#FFFFFF" stroke="#000000" stroke-linecap="round" stroke-linejoin="round" points="289.446,363.415 280.938,358.217 
	341.084,255.787 349.594,260.985 "/>
<polygon fill="#FFFFFF" stroke="#000000" stroke-linecap="round" stroke-linejoin="round" points="245.393,374.68 236.884,369.479 
	311.454,242.621 319.958,247.818 "/>
<polygon fill="#FFFFFF" stroke="#000000" stroke-linecap="round" stroke-linejoin="round" points="202.687,385.602 194.183,380.407 
	285.474,225.068 293.981,230.263 "/>
<polygon fill="#FFFFFF" stroke="#000000" stroke-linecap="round" stroke-linejoin="round" points="158.968,396.784 150.465,391.588 
	256.166,211.694 264.675,216.889 "/>
<polygon fill="#FFFFFF" stroke="#000000" stroke-linecap="round" stroke-linejoin="round" points="194.577,277.006 186.068,271.809 
	235.943,186.878 244.446,192.079 "/>
<polygon fill="#FFFFFF" stroke="#000000" stroke-linecap="round" stroke-linejoin="round" points="169.869,257.284 161.366,252.086 
	208.316,172.135 216.819,177.331 "/>
<polygon fill="#FFFFFF" stroke="#000000" stroke-linecap="round" stroke-linejoin="round" points="150.465,226.623 148.705,210.37 
	186.82,145.467 195.328,150.662 "/>
<polygon fill="#FFFFFF" stroke="#000000" stroke-linecap="round" stroke-linejoin="round" points="154.964,156.282 146.456,151.084 
	165.042,119.439 173.551,124.635 "/>
<path fill="#FFFFFF" stroke="#000000" stroke-linecap="round" stroke-linejoin="round" d="M252.388,292.381"/>
<path fill="#FFFFFF" stroke="#000000" stroke-linecap="round" stroke-linejoin="round" d="M250.117,297.768"/>
<polygon fill="#FFFFFF" stroke="#000000" stroke-linecap="round" stroke-linejoin="round" points="390.959,524.411 141.455,524.411 
	141.455,234.49 200.36,281.206 254.602,317.141 325.504,345.889 390.959,363.856 "/>
<polygon fill="#FFFFFF" stroke="#000000" stroke-linecap="round" stroke-linejoin="round" points="275.764,524.411 263.228,524.411 
	263.228,320.395 275.764,326.065 "/>
<rect x="141.858" y="511.628" fill="#FFFFFF" stroke="#000000" stroke-linecap="round" stroke-linejoin="round" width="249.107" height="12.782"/>
<g>
	
		<rect x="143.504" y="483.276" fill="#FFFFFF" stroke="#000000" stroke-linecap="round" stroke-linejoin="round" width="246.821" height="28.353"/>
	
		<rect x="143.504" y="434.962" fill="#FFFFFF" stroke="#000000" stroke-linecap="round" stroke-linejoin="round" width="246.821" height="28.352"/>
	
		<rect x="143.504" y="386.645" fill="#FFFFFF" stroke="#000000" stroke-linecap="round" stroke-linejoin="round" width="246.821" height="28.354"/>
	<polygon fill="#FFFFFF" stroke="#000000" stroke-linecap="round" stroke-linejoin="round" points="390.325,366.684 
		307.631,338.331 143.504,338.331 143.504,366.684 	"/>
</g>
<polygon fill="#FFFFFF" stroke="#000000" stroke-linecap="round" stroke-linejoin="round" points="221.703,290.02 141.858,290.02 
	141.858,318.368 263.228,318.368 "/>
<polygon fill="#FFFFFF" stroke="#000000" stroke-linecap="round" stroke-linejoin="round" points="162.997,241.705 141.858,241.705 
	141.858,270.055 188.6,270.055 "/>
<g>
	<path fill="#FFFFFF" stroke="#000000" stroke-linecap="round" stroke-linejoin="round" d="M387.514,359.288
		c-17.318-2.164-36.305-7.229-56.221-15.031c-49.104-19.223-111.942-53.824-159.567-99.293
		c-9.521-9.106-18.648-18.873-27.351-29.057c-2.521-2.948,3.303,23.404,3.303,23.404c5.527,6.301,2.424,1.747,8.27,7.651
		l-0.052,0.063c2.394,2.364,4.812,4.725,7.267,7.067c0.041,0.046,0.087,0.082,0.133,0.124c0.041,0.045,0.087,0.089,0.128,0.127
		c2.454,2.35,4.919,4.652,7.389,6.938l0.056-0.06c46.531,42.058,105.043,74.501,151.586,92.728
		c23.598,9.236,46.361,14.934,66.492,17.834C390.719,372.042,391.334,359.762,387.514,359.288z"/>
</g>
<g>
	<path fill="#FFFFFF" stroke="#000000" stroke-linecap="round" stroke-linejoin="round" d="M392.77,271.678
		c-20.018-3.757-42.225-12.208-65.33-24.869c-46.676-25.568-105.205-68.169-147.267-119.473
		c-8.401-10.271-16.337-21.145-23.798-32.369c-0.623-0.935-1.242-1.858-1.855-2.778c-1.524-2.287-3.032-3.478-4.516-5.834
		l-0.623,21.286c4.76,6.966,9.694,12.944,14.813,19.559l-0.056,0.055c2.103,2.656,4.233,5.317,6.401,7.96
		c0.031,0.048,0.077,0.093,0.112,0.141c0.041,0.048,0.082,0.097,0.118,0.144c2.168,2.648,4.346,5.251,6.54,7.84l0.061-0.055
		c41.377,47.79,95.847,87.684,140.091,111.922c22.432,12.286,44.455,20.964,64.182,26.521c1.74,0.485,3.438,0.919,5.119,1.307
		C386.762,283.034,394.881,272.073,392.77,271.678z"/>
	<polygon fill="#FFFFFF" stroke="#000000" stroke-linecap="round" stroke-linejoin="round" points="153.992,524.411 
		141.455,524.411 141.455,72.957 153.992,91.395 	"/>
</g>
<polygon fill="#FFFFFF" stroke="#000000" stroke-linecap="round" stroke-linejoin="round" points="396.54,524.411 384.006,524.411 
	384.006,269.741 396.54,271.493 "/>
</svg>
