<?xml version="1.0" encoding="utf-8"?>
<!-- Generator: Adobe Illustrator 15.0.0, SVG Export Plug-In . SVG Version: 6.00 Build 0)  -->
<!DOCTYPE svg PUBLIC "-//W3C//DTD SVG 1.1//EN" "http://www.w3.org/Graphics/SVG/1.1/DTD/svg11.dtd">
<svg version="1.1" id="_x31_90x210_ramka" xmlns="http://www.w3.org/2000/svg" xmlns:xlink="http://www.w3.org/1999/xlink" x="0px"
	 y="0px" width="538.583px" height="538.584px" viewBox="0 0 538.583 538.584" enable-background="new 0 0 538.583 538.584"
	 xml:space="preserve">
<g>
	<polygon fill="#FFFFFF" stroke="#000000" stroke-linecap="round" stroke-linejoin="round" points="390.963,30.617 383.801,37.781 
		510.774,164.753 517.934,157.588 	"/>
	<polygon fill="#FFFFFF" stroke="#000000" stroke-linecap="round" stroke-linejoin="round" points="452.729,44.993 445.565,52.157 
		516.368,122.962 519.915,112.178 	"/>
	
		<rect x="389.877" y="4.444" transform="matrix(0.7069 -0.7073 0.7073 0.7069 53.6317 305.1126)" fill="#FFFFFF" stroke="#000000" stroke-linecap="round" stroke-linejoin="round" width="10.129" height="166.809"/>
	
		<rect x="333.058" y="-1.514" transform="matrix(0.707 -0.7072 0.7072 0.707 45.3376 261.3813)" fill="#FFFFFF" stroke="#000000" stroke-linecap="round" stroke-linejoin="round" width="10.13" height="154.977"/>
	
		<rect x="285.488" y="5.226" transform="matrix(0.707 -0.7072 0.7072 0.707 32.4847 227.2902)" fill="#FFFFFF" stroke="#000000" stroke-linecap="round" stroke-linejoin="round" width="10.13" height="138.428"/>
	
		<rect x="241.684" y="15.061" transform="matrix(0.707 -0.7072 0.7072 0.707 17.8716 197.0501)" fill="#FFFFFF" stroke="#000000" stroke-linecap="round" stroke-linejoin="round" width="10.133" height="123.79"/>
	
		<rect x="196.369" y="14.729" transform="matrix(0.707 -0.7072 0.7072 0.707 4.8331 164.8955)" fill="#FFFFFF" stroke="#000000" stroke-linecap="round" stroke-linejoin="round" width="10.13" height="123.771"/>
	
		<rect x="155.669" y="20.074" transform="matrix(0.707 -0.7072 0.7072 0.707 -10.8666 137.6914)" fill="#FFFFFF" stroke="#000000" stroke-linecap="round" stroke-linejoin="round" width="10.131" height="123.771"/>
	
		<rect x="120.316" y="34.385" transform="matrix(0.707 -0.7072 0.7072 0.707 -26.6669 114.9319)" fill="#FFFFFF" stroke="#000000" stroke-linecap="round" stroke-linejoin="round" width="10.13" height="110.532"/>
	
		<rect x="85.88" y="47.991" transform="matrix(0.7071 -0.7071 0.7071 0.7071 -44.2059 93.6529)" fill="#FFFFFF" stroke="#000000" stroke-linecap="round" stroke-linejoin="round" width="10.133" height="104.393"/>
	<polygon fill="#FFFFFF" stroke="#000000" stroke-linecap="round" stroke-linejoin="round" points="26.978,75.118 20.93,83.397 
		88.912,151.38 96.075,144.215 	"/>
	<polygon fill="#FFFFFF" stroke="#000000" stroke-linecap="round" stroke-linejoin="round" points="23.613,116.874 22.125,129.714 
		57.164,164.753 64.327,157.588 	"/>
	
		<rect x="81.692" y="9.517" transform="matrix(-0.707 -0.7072 0.7072 -0.707 78.5462 229.2432)" fill="#FFFFFF" stroke="#000000" stroke-linecap="round" stroke-linejoin="round" width="10.132" height="177.669"/>
	<polygon fill="#FFFFFF" stroke="#000000" stroke-linecap="round" stroke-linejoin="round" points="82.224,48.336 89.388,55.501 
		21.926,122.962 20.904,109.656 	"/>
	
		<rect x="139.098" y="0.972" transform="matrix(-0.707 -0.7072 0.7072 -0.707 184.5797 250.4238)" fill="#FFFFFF" stroke="#000000" stroke-linecap="round" stroke-linejoin="round" width="10.133" height="172.01"/>
	
		<rect x="192.777" y="-0.624" transform="matrix(-0.707 -0.7072 0.7072 -0.707 282.3572 273.5615)" fill="#FFFFFF" stroke="#000000" stroke-linecap="round" stroke-linejoin="round" width="10.133" height="157.836"/>
	
		<rect x="242.339" y="4.151" transform="matrix(-0.7069 -0.7073 0.7073 -0.7069 369.3878 302.6442)" fill="#FFFFFF" stroke="#000000" stroke-linecap="round" stroke-linejoin="round" width="10.129" height="141.263"/>
	
		<rect x="289.316" y="6.325" transform="matrix(-0.7069 -0.7073 0.7073 -0.7069 450.0562 334.731)" fill="#FFFFFF" stroke="#000000" stroke-linecap="round" stroke-linejoin="round" width="10.129" height="135.59"/>
	
		<rect x="331.793" y="14.736" transform="matrix(-0.7069 -0.7073 0.7073 -0.7069 520.7733 369.058)" fill="#FFFFFF" stroke="#000000" stroke-linecap="round" stroke-linejoin="round" width="10.129" height="123.77"/>
	
		<rect x="372.325" y="22.38" transform="matrix(-0.707 -0.7072 0.7072 -0.707 586.1203 407.1027)" fill="#FFFFFF" stroke="#000000" stroke-linecap="round" stroke-linejoin="round" width="10.13" height="119.516"/>
	<polygon fill="#FFFFFF" stroke="#000000" stroke-linecap="round" stroke-linejoin="round" points="450.083,45.327 457.243,52.492 
		375.741,133.995 368.579,126.83 	"/>
	<polygon fill="#FFFFFF" stroke="#000000" stroke-linecap="round" stroke-linejoin="round" points="485.032,55.357 492.192,62.521 
		414.366,140.347 407.206,133.182 	"/>
	<polygon fill="#FFFFFF" stroke="#000000" stroke-linecap="round" stroke-linejoin="round" points="511.608,74.828 517.319,83.443 
		450.721,150.043 443.557,142.878 	"/>
	
		<rect x="494.849" y="112.854" transform="matrix(-0.7071 -0.7071 0.7071 -0.7071 755.2559 590.452)" fill="#FFFFFF" stroke="#000000" stroke-linecap="round" stroke-linejoin="round" width="10.132" height="51.906"/>
</g>
<path fill="#FFFFFF" stroke="#000000" stroke-linecap="round" stroke-linejoin="round" d="M438.159,135.601"/>
<path fill="#FFFFFF" stroke="#000000" stroke-linecap="round" stroke-linejoin="round" d="M501.446,113.048"/>
<path fill="#FFFFFF" stroke="#000000" stroke-linecap="round" stroke-linejoin="round" d="M436.383,141.197"/>
<path fill="#FFFFFF" stroke="#000000" stroke-linecap="round" stroke-linejoin="round" d="M523.329,523.516H14.173v-343.89
	c0,0,37.199-23.111,114.598-44.759c77.399-21.645,138.785-20.105,138.785-20.105s70.915-1.539,141.114,20.105
	c38.365,11.832,114.658,44.042,114.658,44.042V523.516L523.329,523.516z"/>
<polygon fill="#FFFFFF" stroke="#000000" stroke-linecap="round" stroke-linejoin="round" points="193.286,523.516 180.481,523.516 
	180.481,122.983 193.286,120.289 "/>
<rect x="345.002" y="127.453" fill="#FFFFFF" stroke="#000000" stroke-linecap="round" stroke-linejoin="round" width="12.807" height="396.063"/>
<rect x="14.173" y="510.714" fill="#FFFFFF" stroke="#000000" stroke-linecap="round" stroke-linejoin="round" width="510.236" height="12.803"/>
<rect x="14.173" y="482.395" fill="#FFFFFF" stroke="#000000" stroke-linecap="round" stroke-linejoin="round" width="509.156" height="28.391"/>
<rect x="14.173" y="434.014" fill="#FFFFFF" stroke="#000000" stroke-linecap="round" stroke-linejoin="round" width="509.156" height="28.393"/>
<rect x="14.173" y="385.635" fill="#FFFFFF" stroke="#000000" stroke-linecap="round" stroke-linejoin="round" width="509.156" height="28.393"/>
<rect x="14.173" y="337.26" fill="#FFFFFF" stroke="#000000" stroke-linecap="round" stroke-linejoin="round" width="509.156" height="28.385"/>
<rect x="14.173" y="288.881" fill="#FFFFFF" stroke="#000000" stroke-linecap="round" stroke-linejoin="round" width="509.156" height="28.388"/>
<rect x="14.173" y="240.5" fill="#FFFFFF" stroke="#000000" stroke-linecap="round" stroke-linejoin="round" width="509.156" height="28.382"/>
<polygon fill="#FFFFFF" stroke="#000000" stroke-linecap="round" stroke-linejoin="round" points="513.506,192.12 23.229,192.12 
	20.771,220.504 520.213,220.504 "/>
<polygon fill="#FFFFFF" stroke="#000000" stroke-linecap="round" stroke-linejoin="round" points="427.563,143.744 108.196,143.819 
	33.698,172.128 506.417,172.128 "/>
<g>
	<path fill="#FFFFFF" stroke="#000000" stroke-linecap="round" stroke-linejoin="round" d="M16.717,70.103
		c1.287-0.615,2.556-1.408,3.826-2.243c1.477-0.972,2.15-1.312,3.655-2.188c0.587-0.342,1.986-1.373,2.911-1.784
		C95.018,33.487,178.81,15.601,269.5,15.59l0,0C360,15.6,443.637,33.406,511.479,63.698c0.502,0.223,1.02,0.697,1.504,0.972
		c2.723,1.546,5.18,3.535,7.939,4.849l-5.096,10.317C448.305,47.721,362.668,28.421,269.5,28.432l0,0
		C175.832,28.422,89.788,47.933,22.098,80.353l0,0v0.006L16.717,70.103z"/>
</g>
<g>
	<path fill="#FFFFFF" stroke="#000000" stroke-linecap="round" stroke-linejoin="round" d="M16.554,167.899
		c69.691-33.36,157.499-53.172,252.947-53.183l0,0c94.939,0.011,182.324,19.605,251.843,52.655l0,0l-5.518,11.589
		c-67.521-32.113-153.158-51.414-246.328-51.402l0,0c-93.668-0.012-179.712,19.5-247.402,51.921l0,0v0.006L16.554,167.899
		L16.554,167.899z"/>
</g>
<polygon fill="#FFFFFF" stroke="#000000" stroke-linecap="round" stroke-linejoin="round" points="26.978,523.509 14.173,523.516 
	14.173,70.607 26.978,64.369 "/>
<polygon fill="#FFFFFF" stroke="#000000" stroke-linecap="round" stroke-linejoin="round" points="511.608,523.516 524.409,523.516 
	524.409,69.829 511.608,64.024 "/>
</svg>
